<svg width="222" height="27" viewBox="0 0 222 27" fill="none" xmlns="http://www.w3.org/2000/svg">
<g filter="url(#filter0_dd_1_596)">
<path d="M26.0143 0L28 3.54945C23.2344 4.38462 22.9256 8.35165 23.3668 10.2308H27.5587V19H18.2924C18.0717 17.8864 17.7629 14.2396 18.2924 8.56044C18.8219 2.88132 23.661 0.487179 26.0143 0Z" fill="white"/>
<path d="M12.0143 0L14 3.54945C9.23444 4.38462 8.92556 8.35165 9.36681 10.2308H13.5587V19H4.29237C4.07174 17.8864 3.76286 14.2396 4.29237 8.56044C4.82188 2.88132 9.66098 0.487179 12.0143 0Z" fill="white"/>
<line x1="23" y1="14.5" x2="218" y2="14.5" stroke="white" stroke-opacity="0.2"/>
</g>
<defs>
<filter id="filter0_dd_1_596" x="0" y="0" width="222" height="27" filterUnits="userSpaceOnUse" color-interpolation-filters="sRGB">
<feFlood flood-opacity="0" result="BackgroundImageFix"/>
<feColorMatrix in="SourceAlpha" type="matrix" values="0 0 0 0 0 0 0 0 0 0 0 0 0 0 0 0 0 0 127 0" result="hardAlpha"/>
<feOffset dy="4"/>
<feGaussianBlur stdDeviation="2"/>
<feComposite in2="hardAlpha" operator="out"/>
<feColorMatrix type="matrix" values="0 0 0 0 0 0 0 0 0 0 0 0 0 0 0 0 0 0 0.25 0"/>
<feBlend mode="normal" in2="BackgroundImageFix" result="effect1_dropShadow_1_596"/>
<feColorMatrix in="SourceAlpha" type="matrix" values="0 0 0 0 0 0 0 0 0 0 0 0 0 0 0 0 0 0 127 0" result="hardAlpha"/>
<feOffset dy="4"/>
<feGaussianBlur stdDeviation="2"/>
<feComposite in2="hardAlpha" operator="out"/>
<feColorMatrix type="matrix" values="0 0 0 0 0 0 0 0 0 0 0 0 0 0 0 0 0 0 0.25 0"/>
<feBlend mode="normal" in2="effect1_dropShadow_1_596" result="effect2_dropShadow_1_596"/>
<feBlend mode="normal" in="SourceGraphic" in2="effect2_dropShadow_1_596" result="shape"/>
</filter>
</defs>
</svg>
